<svg width="27" height="27" viewBox="0 0 27 27" fill="none" xmlns="http://www.w3.org/2000/svg">
<path d="M23 19L26 17L13.5 9L1 16.5L4.5 19" stroke="black" stroke-opacity="0.75"/>
<path d="M6.5 21L13 25.5L20.5 21" stroke="black" stroke-opacity="0.75"/>
<path d="M17.9998 20.4142H20.8283V23.2426" stroke="black" stroke-opacity="0.75"/>
<path d="M6.41421 23.2428V20.4144H9.24264" stroke="black" stroke-opacity="0.75"/>
<path d="M19 6.11765C19 9.49633 15.3077 13.1765 13 16C10.2308 13.1765 7 9.49633 7 6.11765C7 2.73896 9.68629 0 13 0C16.3137 0 19 2.73896 19 6.11765Z" fill="white"/>
<path d="M18.5 6.11765C18.5 7.64086 17.6598 9.29546 16.4586 10.9763C15.6464 12.1128 14.7141 13.204 13.8298 14.2389C13.5358 14.5831 13.247 14.921 12.9698 15.2524C11.7056 13.9445 10.3978 12.4886 9.37488 10.9857C8.24099 9.31968 7.5 7.65703 7.5 6.11765C7.5 3.00591 9.97154 0.5 13 0.5C16.0285 0.5 18.5 3.00591 18.5 6.11765Z" stroke="black" stroke-opacity="0.75"/>
<circle cx="13" cy="6" r="2.5" stroke="black" stroke-opacity="0.75"/>
</svg>
