<svg width="30" height="30" viewBox="0 0 30 30" fill="none" xmlns="http://www.w3.org/2000/svg">
<circle cx="15" cy="15" r="15" fill="#E29593"/>
<path d="M14.9994 11.2875C15.1984 11.2875 15.3892 11.2085 15.5299 11.0678C15.6705 10.9271 15.7496 10.7363 15.7496 10.5374C15.7496 10.3384 15.6705 10.1476 15.5299 10.0069C15.3892 9.86626 15.1984 9.78723 14.9994 9.78723C14.8005 9.78723 14.6097 9.86626 14.469 10.0069C14.3283 10.1476 14.2493 10.3384 14.2493 10.5374C14.2493 10.7363 14.3283 10.9271 14.469 11.0678C14.6097 11.2085 14.8005 11.2875 14.9994 11.2875Z" fill="#8D2622"/>
<path d="M20.3995 18.006V13.2H20.4832C21.2869 13.2 21.6172 12.1677 20.9602 11.7024L15.6943 7.96556C15.4914 7.82156 15.2488 7.7442 15 7.7442C14.7512 7.7442 14.5085 7.82156 14.3056 7.96556L9.03882 11.7024C8.38452 12.1677 8.71212 13.2 9.51582 13.2H9.59952V18.006C9.05862 18.3534 8.69952 18.96 8.69952 19.6503V20.85C8.69952 20.9693 8.74693 21.0838 8.83132 21.1682C8.91571 21.2525 9.03017 21.3 9.14952 21.3H20.8495C20.9689 21.3 21.0833 21.2525 21.1677 21.1682C21.2521 21.0838 21.2995 20.9693 21.2995 20.85V19.6503C21.2995 18.96 20.9413 18.3534 20.3995 18.0069V18.006ZM14.8267 8.69996C14.8774 8.66408 14.9379 8.64481 15 8.64481C15.062 8.64481 15.1226 8.66408 15.1732 8.69996L20.2483 12.3H9.75162L14.8267 8.69996ZM19.4995 13.2V17.7054C19.4498 17.7017 19.4 17.6999 19.3501 17.7H17.6995V13.2H19.4995ZM10.4995 17.7054V13.2H12.2995V17.7H10.6498C10.5997 17.6998 10.5495 17.7016 10.4995 17.7054ZM10.6498 18.6H19.3501C19.9297 18.6 20.3995 19.0698 20.3995 19.6503V20.4H9.59952V19.6503C9.59952 19.0698 10.0702 18.6 10.6498 18.6ZM14.5495 17.7H13.1995V13.2H14.5495V17.7ZM15.4495 17.7V13.2H16.7995V17.7H15.4495Z" fill="#8D2622"/>
</svg>
