<svg width="24" height="25" viewBox="0 0 24 25" fill="none" xmlns="http://www.w3.org/2000/svg">
<g clip-path="url(#clip0_3_39)">
<path d="M23.4371 8.6499H20.6307L19.8507 6.6999C19.0491 4.69506 17.1362 3.3999 14.9766 3.3999H9.02351C6.86445 3.3999 4.95101 4.69506 4.14898 6.6999L3.36898 8.6499H0.563043C0.196949 8.6499 -0.0716451 8.99397 0.0174174 9.34881L0.298667 10.4738C0.361011 10.7241 0.586011 10.8999 0.844292 10.8999H1.78507C1.15554 11.4497 0.750074 12.249 0.750074 13.1499V15.3999C0.750074 16.1555 1.03882 16.8376 1.50007 17.3654V19.8999C1.50007 20.7282 2.17179 21.3999 3.00007 21.3999H4.50007C5.32836 21.3999 6.00007 20.7282 6.00007 19.8999V18.3999H18.0001V19.8999C18.0001 20.7282 18.6718 21.3999 19.5001 21.3999H21.0001C21.8284 21.3999 22.5001 20.7282 22.5001 19.8999V17.3654C22.9613 16.838 23.2501 16.156 23.2501 15.3999V13.1499C23.2501 12.249 22.8446 11.4497 22.2155 10.8999H23.1563C23.4146 10.8999 23.6396 10.7241 23.702 10.4738L23.9832 9.34881C24.0718 8.99397 23.8032 8.6499 23.4371 8.6499ZM6.93429 7.81412C7.27601 6.96006 8.10336 6.3999 9.02351 6.3999H14.9766C15.8968 6.3999 16.7241 6.96006 17.0659 7.81412L18.0001 10.1499H6.00007L6.93429 7.81412ZM4.50007 15.3905C3.60007 15.3905 3.00007 14.7924 3.00007 13.8952C3.00007 12.998 3.60007 12.3999 4.50007 12.3999C5.40007 12.3999 6.75007 13.7457 6.75007 14.6429C6.75007 15.5401 5.40007 15.3905 4.50007 15.3905ZM19.5001 15.3905C18.6001 15.3905 17.2501 15.5401 17.2501 14.6429C17.2501 13.7457 18.6001 12.3999 19.5001 12.3999C20.4001 12.3999 21.0001 12.998 21.0001 13.8952C21.0001 14.7924 20.4001 15.3905 19.5001 15.3905Z" fill="#0770BA"/>
</g>
<defs>
<clipPath id="clip0_3_39">
<rect width="24" height="24" fill="white" transform="translate(0 0.399902)"/>
</clipPath>
</defs>
</svg>
