<svg width="24" height="25" viewBox="0 0 24 25" fill="none" xmlns="http://www.w3.org/2000/svg">
<path d="M19.4245 4.98152C18.4512 3.99863 17.2933 3.21773 16.0173 2.68367C14.7414 2.14962 13.3724 1.87294 11.9892 1.86954C10.606 1.86613 9.23573 2.13607 7.95714 2.66383C6.67856 3.1916 5.51685 3.9668 4.53876 4.94489C3.56067 5.92298 2.78547 7.08469 2.25771 8.36327C1.72994 9.64186 1.46001 11.0121 1.46341 12.3954C1.46682 13.7786 1.74349 15.1475 2.27754 16.4235C2.8116 17.6994 3.5925 18.8573 4.5754 19.8306C5.54866 20.8135 6.70654 21.5944 7.98251 22.1284C9.25849 22.6625 10.6274 22.9392 12.0106 22.9426C13.3939 22.946 14.7641 22.676 16.0427 22.1483C17.3213 21.6205 18.483 20.8453 19.4611 19.8672C20.4392 18.8891 21.2144 17.7274 21.7421 16.4488C22.2699 15.1703 22.5398 13.8 22.5364 12.4168C22.533 11.0335 22.2564 9.66462 21.7223 8.38864C21.1883 7.11267 20.4074 5.95479 19.4245 4.98152ZM2.99993 12.4061C2.99959 11.6095 3.1052 10.8165 3.31399 10.0478C3.65805 10.7884 4.15774 11.4282 4.49758 12.1881C4.9368 13.165 6.11618 12.894 6.63696 13.75C7.09914 14.5098 6.60555 15.4707 6.95149 16.2657C7.20274 16.8428 7.79524 16.9689 8.20399 17.3907C8.62165 17.8164 8.61274 18.3995 8.67649 18.9545C8.74843 19.6066 8.86511 20.253 9.02571 20.889C9.02571 20.8937 9.02571 20.8989 9.02946 20.9036C5.5218 19.6717 2.99993 16.3281 2.99993 12.4061ZM11.9999 21.4061C11.4973 21.4059 10.9956 21.3639 10.4999 21.2804C10.5051 21.1534 10.5074 21.0348 10.5201 20.9523C10.634 20.207 11.0071 19.4781 11.5106 18.9203C12.0079 18.37 12.6895 17.9978 13.1095 17.3734C13.521 16.764 13.6443 15.9437 13.4746 15.2317C13.2248 14.1798 11.7956 13.8287 11.0249 13.2582C10.582 12.9301 10.1877 12.4229 9.60602 12.3817C9.33789 12.3629 9.11336 12.4206 8.84758 12.3522C8.60383 12.2889 8.41258 12.1576 8.15289 12.1918C7.66774 12.2556 7.36164 12.774 6.84039 12.7037C6.34586 12.6376 5.83633 12.0587 5.72383 11.5876C5.57946 10.982 6.05852 10.7856 6.5718 10.7317C6.78602 10.7092 7.02649 10.6848 7.23227 10.7636C7.50321 10.8639 7.63118 11.1292 7.87446 11.2632C8.33055 11.5136 8.42289 11.1137 8.35305 10.7087C8.24852 10.1022 8.12665 9.85512 8.66758 9.43746C9.04258 9.14965 9.36321 8.94153 9.30321 8.42449C9.26758 8.12074 9.10118 7.9834 9.25633 7.68106C9.37399 7.4509 9.69696 7.24324 9.90743 7.1059C10.4507 6.75152 12.2348 6.77778 11.5059 5.7859C11.2916 5.49481 10.8965 4.97449 10.5215 4.90324C10.0527 4.81465 9.84461 5.33777 9.51789 5.5684C9.1804 5.80699 8.52321 6.07793 8.18524 5.70902C7.73055 5.21262 8.48664 5.04996 8.65399 4.70309C8.73133 4.54137 8.65399 4.31684 8.52368 4.10543C8.69274 4.03418 8.86461 3.96809 9.0393 3.90715C9.14878 3.98801 9.27865 4.03671 9.4143 4.04777C9.72789 4.0684 10.0237 3.89871 10.2974 4.11246C10.6012 4.34684 10.8201 4.64309 11.2232 4.71621C11.6132 4.78699 12.0262 4.55965 12.1227 4.16027C12.1813 3.91746 12.1227 3.66105 12.0665 3.41027C13.8196 3.42036 15.5311 3.94539 16.9884 4.92012C16.8946 4.88449 16.7826 4.88871 16.6443 4.95293C16.3598 5.08512 15.9566 5.42168 15.9234 5.75543C15.8854 6.13418 16.4441 6.18762 16.7095 6.18762C17.1079 6.18762 17.5115 6.00949 17.3831 5.54918C17.3273 5.34949 17.2513 5.14184 17.129 5.01621C17.4231 5.22029 17.7048 5.44161 17.9727 5.67902C17.9685 5.68324 17.9643 5.68699 17.9601 5.69168C17.6901 5.97293 17.3765 6.19559 17.1918 6.53778C17.0615 6.77871 16.9148 6.89309 16.6509 6.95543C16.5056 6.98965 16.3396 7.00231 16.2177 7.09981C15.8784 7.36699 16.0715 8.00918 16.3931 8.20184C16.7995 8.44512 17.4023 8.33074 17.7088 7.9834C17.9484 7.71152 18.0895 7.23949 18.5202 7.23996C18.7099 7.23957 18.8921 7.31383 19.0274 7.44668C19.2056 7.63137 19.1704 7.80387 19.2084 8.03449C19.2754 8.44418 19.6368 8.22199 19.8566 8.01528C20.0169 8.30047 20.1615 8.59419 20.2898 8.89512C20.0479 9.2434 19.8557 9.62309 19.274 9.21715C18.9257 8.97387 18.7115 8.6209 18.2741 8.51121C17.8921 8.41746 17.5007 8.51496 17.1234 8.58012C16.6945 8.65465 16.1859 8.68746 15.8606 9.01231C15.546 9.32543 15.3796 9.74449 15.0449 10.059C14.3976 10.6684 14.1243 11.3336 14.5434 12.1951C14.9465 13.0234 15.7898 13.4729 16.6996 13.4139C17.5935 13.3543 18.5221 12.8359 18.4963 14.1348C18.487 14.5947 18.5831 14.9129 18.7241 15.34C18.8549 15.7337 18.846 16.1153 18.876 16.5217C18.9045 16.9976 18.979 17.4696 19.0982 17.9312C18.258 19.013 17.1817 19.8884 15.9515 20.4907C14.7212 21.0929 13.3697 21.406 11.9999 21.4061Z" fill="#0770BA"/>
</svg>
