<svg width="24" height="23" viewBox="0 0 24 23" fill="none" xmlns="http://www.w3.org/2000/svg">
<path d="M5.15827 6.79259C5.45243 6.01468 6.19731 5.5 7.02898 5.5H16.971C17.8027 5.5 18.5476 6.01468 18.8417 6.79259L21 12.5H3L5.15827 6.79259Z" fill="#F3F4F1"/>
<path d="M5.62594 6.96944C5.84657 6.38601 6.40523 6 7.02898 6H16.971C17.5948 6 18.1534 6.38601 18.3741 6.96944L20.2764 12H3.72363L5.62594 6.96944Z" stroke="black" stroke-opacity="0.7"/>
<rect x="3" y="15.5" width="5" height="7" rx="2" fill="#F3F4F1"/>
<rect x="3.5" y="16" width="4" height="6" rx="1.5" stroke="black" stroke-opacity="0.7"/>
<rect x="16" y="15.5" width="5" height="7" rx="2" fill="#F3F4F1"/>
<rect x="16.5" y="16" width="4" height="6" rx="1.5" stroke="black" stroke-opacity="0.7"/>
<path d="M1 5.5L12 1L23 5.5" stroke="black" stroke-opacity="0.7"/>
<path d="M1.5 11.9535C1.5 11.4197 1.91925 10.98 2.45243 10.9546L12 10.5L21.5476 10.9546C22.0808 10.98 22.5 11.4197 22.5 11.9535V17.9512C22.5 18.5222 22.0227 18.9773 21.4524 18.9501L12 18.5L2.54756 18.9501C1.97725 18.9773 1.5 18.5222 1.5 17.9512V11.9535Z" fill="#F3F4F1"/>
<path d="M12.0238 18.0006L12 17.9994L11.9762 18.0006L2.52378 18.4507C2.23863 18.4643 2 18.2367 2 17.9512V11.9535C2 11.6866 2.20962 11.4668 2.47622 11.4541L12 11.0006L21.5238 11.4541C21.7904 11.4668 22 11.6866 22 11.9535V17.9512C22 18.2367 21.7614 18.4643 21.4762 18.4507L12.0238 18.0006Z" stroke="black" stroke-opacity="0.7"/>
<path fill-rule="evenodd" clip-rule="evenodd" d="M4.5 14.5C4.22386 14.5 4 14.7239 4 15C4 15.2761 4.22386 15.5 4.5 15.5C4.22386 15.5 4 15.7239 4 16C4 16.2761 4.22386 16.5 4.5 16.5H7.5C7.77614 16.5 8 16.2761 8 16C8 15.7239 7.77614 15.5 7.5 15.5C7.77614 15.5 8 15.2761 8 15C8 14.7239 7.77614 14.5 7.5 14.5H4.5ZM16 16C16 15.7239 16.2239 15.5 16.5 15.5C16.2239 15.5 16 15.2761 16 15C16 14.7239 16.2239 14.5 16.5 14.5H19.5C19.7761 14.5 20 14.7239 20 15C20 15.2761 19.7761 15.5 19.5 15.5C19.7761 15.5 20 15.7239 20 16C20 16.2761 19.7761 16.5 19.5 16.5H16.5C16.2239 16.5 16 16.2761 16 16Z" fill="black" fill-opacity="0.7"/>
</svg>
