<svg width="24" height="24" viewBox="0 0 24 24" fill="none" xmlns="http://www.w3.org/2000/svg">
<path d="M10.1318 10.5183L10.1382 10.5124L10.1444 10.5063C10.3323 10.3203 10.5861 10.2163 10.8505 10.217C11.1148 10.2177 11.3681 10.3231 11.555 10.51L12.7788 11.7343C12.8718 11.8274 12.9455 11.938 12.9957 12.0597C13.0459 12.1814 13.0716 12.3118 13.0713 12.4434C13.071 12.575 13.0447 12.7053 12.9939 12.8268C12.9431 12.9482 12.8688 13.0584 12.7753 13.1511L12.7685 13.1579L12.7619 13.165L4.85661 21.6326C4.85623 21.633 4.85584 21.6334 4.85546 21.6338C4.63475 21.8663 4.38291 21.9881 4.12319 22.0001H4.07899C3.81217 21.999 3.55653 21.8928 3.36753 21.7044L3.36676 21.7037L3.36622 21.7031L1.53926 19.856C1.53921 19.856 1.53916 19.8559 1.53911 19.8559C1.44221 19.7575 1.36661 19.6402 1.31703 19.5113C1.26747 19.3825 1.24497 19.2449 1.25094 19.107C1.26272 18.8472 1.38944 18.5917 1.62463 18.3694L10.1318 10.5183Z" stroke="black"/>
<path d="M9.03804 2.56307C8.79412 2.79605 8.57166 3.05051 8.37336 3.32338L8.77826 3.61673C8.74668 3.66031 8.73001 3.71293 8.73074 3.76675C8.73146 3.82057 8.74953 3.87273 8.78227 3.91545L8.38857 4.21712L8.78227 3.91545C8.81501 3.95818 8.86066 3.9892 8.91244 4.0039L8.7759 4.48489L8.77783 3.61732C8.95749 3.37011 9.15891 3.13948 9.37968 2.92818M9.03804 2.56307L9.37625 2.93133C9.37739 2.93028 9.37853 2.92923 9.37968 2.92818M9.03804 2.56307L9.38339 2.92464C9.38216 2.92582 9.38092 2.927 9.37968 2.92818M9.03804 2.56307C9.46883 2.16744 10.5938 1.49994 12.0732 1.49994L9.37968 2.92818M9.37968 2.92818C9.73367 2.60514 10.7392 1.99994 12.0732 1.99994L12.0735 1.99994C12.8617 1.9994 13.6423 2.15309 14.3715 2.45234L14.3725 2.45277C16.3769 3.27015 17.6822 4.38412 18.2742 4.96694C18.2746 4.96736 18.275 4.96777 18.2755 4.96819L9.37968 2.92818Z" stroke="black"/>
</svg>
