<svg width="36" height="30" viewBox="0 0 36 30" fill="none" xmlns="http://www.w3.org/2000/svg">
<path fill-rule="evenodd" clip-rule="evenodd" d="M31.8919 1.50419C32.636 1.30256 34.6131 1.61634 35.2144 1.92696C35.3604 2.59294 35.1495 4.5827 34.7648 5.24868L0 28.8706L31.8919 1.50419Z" fill="#F04745"/>
<path fill-rule="evenodd" clip-rule="evenodd" d="M16.0979 0C7.8138 0 1.0979 6.71527 1.0979 15C1.0979 18.4478 2.06238 21.0172 4.0178 23.5507L26.3766 4.26997C23.6566 1.51027 20.2791 0 16.0979 0ZM10.4287 16.756L21.0504 4.69275C21.3217 4.57682 22.0869 4.59068 22.3314 4.67637C22.4221 4.92084 22.4482 5.68511 22.3381 5.95793L10.4287 16.756Z" fill="#F04745"/>
<path fill-rule="evenodd" clip-rule="evenodd" d="M29.9886 10.2544L6.2998 26.2147C6.53592 26.4503 6.77472 26.6696 7.01493 26.8813L21.8212 17.0509C22.1733 16.9999 23.0601 17.2557 23.318 17.4321C23.3472 17.7446 23.1379 18.6438 22.9245 18.9267L7.16127 27.0085C9.64358 29.135 12.39 30.0001 16.0969 30.0001C24.3812 30.0001 31.0972 23.2842 31.0972 15.0001C31.0972 13.1911 30.5754 11.8598 29.9886 10.2544Z" fill="#F04745"/>
</svg>
