<svg width="40" height="40" viewBox="0 0 40 40" fill="none" xmlns="http://www.w3.org/2000/svg">
<circle cx="20" cy="20" r="15" fill="#CCF2F5"/>
<g clip-path="url(#clip0_3_209)">
<path d="M11.9212 26.7428C11.9804 26.7576 12.0432 26.7494 12.096 26.7199C12.1489 26.6904 12.1876 26.642 12.2038 26.5851C12.6792 24.8736 14.6117 24.43 15.7667 24.1645C16.0561 24.0982 16.2847 24.0456 16.4333 23.9837C17.749 23.4328 18.1778 22.5465 18.3062 21.8999C18.3138 21.8614 18.3108 21.8217 18.2974 21.7847C18.284 21.7477 18.2608 21.7148 18.23 21.6892C17.5449 21.1187 16.967 20.2623 16.6023 19.2771C16.592 19.2489 16.5758 19.2229 16.5547 19.201C16.0723 18.695 15.7953 18.1601 15.7953 17.7339C15.7953 17.485 15.8927 17.318 16.112 17.1919C16.1448 17.173 16.1723 17.1464 16.1919 17.1147C16.2115 17.083 16.2226 17.0471 16.2242 17.0102C16.3262 14.7415 18.001 12.9556 20.0553 12.944L20.1047 12.9471C22.1692 12.9748 23.8334 14.799 23.893 17.0997C23.8938 17.1312 23.9015 17.1621 23.9157 17.1904C23.9299 17.2188 23.9501 17.2439 23.9751 17.2641C24.1196 17.3821 24.187 17.5317 24.187 17.7348C24.187 18.0916 23.9899 18.5302 23.6326 18.9694C23.6156 18.9905 23.6024 19.0143 23.5938 19.0397C23.2245 20.1692 22.5616 21.1664 21.7759 21.7765C21.7433 21.8019 21.7185 21.8352 21.704 21.8731C21.6896 21.911 21.686 21.9519 21.6937 21.9916C21.822 22.6378 22.2509 23.5237 23.5666 24.0755C23.7221 24.1405 23.9636 24.1913 24.2696 24.255C25.4131 24.4937 27.3266 24.8941 27.7961 26.5851C27.804 26.6133 27.8176 26.6398 27.8361 26.663C27.8545 26.6862 27.8776 26.7057 27.9039 26.7203C27.9301 26.7348 27.9591 26.7443 27.9892 26.7481C28.0193 26.7519 28.0498 26.7499 28.0791 26.7423C28.1084 26.7347 28.1358 26.7216 28.1599 26.7038C28.1839 26.6859 28.2041 26.6637 28.2192 26.6384C28.2343 26.613 28.2441 26.585 28.2481 26.556C28.252 26.527 28.2499 26.4976 28.2421 26.4693C27.6996 24.5155 25.5318 24.0626 24.3675 23.8194C24.0975 23.7628 23.8643 23.7143 23.7508 23.6662C22.8921 23.3063 22.3631 22.7581 22.1761 22.0339C22.9734 21.3734 23.6404 20.3545 24.0217 19.2116C24.4266 18.7039 24.6491 18.1811 24.6491 17.7344C24.6491 17.4364 24.5494 17.1879 24.3518 16.9937C24.242 14.4979 22.3959 12.5325 20.1047 12.5009L20.0359 12.5C17.7864 12.5116 15.9324 14.4253 15.7704 16.8779C15.4814 17.0828 15.3346 17.3701 15.3346 17.7348C15.3346 18.2617 15.6434 18.8919 16.184 19.47C16.5575 20.46 17.1364 21.3298 17.8256 21.9386C17.6396 22.6654 17.1101 23.2155 16.2496 23.5758C16.1383 23.6225 15.9167 23.6738 15.6601 23.7325C14.487 24.0015 12.3044 24.5026 11.7578 26.4702C11.742 26.5272 11.7504 26.588 11.781 26.6391C11.8117 26.6902 11.8621 26.7275 11.9212 26.7428Z" fill="#3B7980" stroke="#3B7980"/>
</g>
<path d="M0.154798 22.4835C-0.197551 19.668 0.0532298 16.8098 0.890482 14.0986C1.72773 11.3875 3.13229 8.88552 5.01085 6.75895C6.88941 4.63238 9.19897 2.92988 11.7861 1.76454C14.3732 0.599206 17.1787 -0.00229191 20.0162 6.56163e-06C22.8537 0.00230503 25.6582 0.608347 28.2434 1.77787C30.8287 2.9474 33.1355 4.65364 35.0106 6.78325C36.8857 8.91286 38.2862 11.4171 39.1191 14.1296C39.9519 16.8421 40.1981 19.7007 39.8412 22.5157L32.9083 21.6367C33.1405 19.8053 32.9804 17.9455 32.4385 16.1808C31.8967 14.4161 30.9856 12.7869 29.7656 11.4014C28.5457 10.0159 27.045 8.90586 25.363 8.14499C23.6811 7.38411 21.8566 6.98983 20.0105 6.98833C18.1645 6.98684 16.3393 7.37816 14.6562 8.13631C12.973 8.89446 11.4705 10.0021 10.2483 11.3856C9.02615 12.7691 8.11237 14.3968 7.56766 16.1607C7.02296 17.9245 6.85981 19.784 7.08904 21.6157L0.154798 22.4835Z" fill="#57AF32"/>
<defs>
<clipPath id="clip0_3_209">
<rect width="18" height="16" fill="white" transform="translate(11 11.75)"/>
</clipPath>
</defs>
</svg>
