<svg width="29" height="24" viewBox="0 0 29 24" fill="none" xmlns="http://www.w3.org/2000/svg">
<path d="M0.708008 4C0.708008 1.79086 2.49887 0 4.70801 0H28.708V24H4.70801C2.49887 24 0.708008 22.2091 0.708008 20V4Z" fill="#57AF32"/>
<path d="M22.4656 15.28V17.28C22.4664 17.4657 22.4281 17.6494 22.3532 17.8195C22.2784 17.9897 22.1686 18.1424 22.031 18.2679C21.8933 18.3934 21.7308 18.489 21.5538 18.5485C21.3768 18.6079 21.1893 18.63 21.0033 18.6133C18.9391 18.3904 16.9564 17.6894 15.2143 16.5666C13.5936 15.5431 12.2194 14.1774 11.1895 12.5666C10.0559 10.8275 9.35038 8.84731 9.1302 6.78665C9.11344 6.60229 9.13548 6.41649 9.19493 6.24107C9.25438 6.06564 9.34993 5.90444 9.4755 5.76773C9.60107 5.63102 9.75391 5.52179 9.92428 5.447C10.0947 5.37221 10.2788 5.33349 10.4651 5.33332H12.4775C12.803 5.33013 13.1186 5.4447 13.3654 5.65567C13.6123 5.86664 13.7735 6.15961 13.8191 6.47998C13.904 7.12003 14.0615 7.74847 14.2886 8.35332C14.3789 8.59193 14.3984 8.85126 14.3449 9.10057C14.2914 9.34988 14.1671 9.57872 13.9868 9.75998L13.1348 10.6066C14.0898 12.2757 15.4802 13.6576 17.1596 14.6066L18.0115 13.76C18.1939 13.5807 18.4242 13.4572 18.675 13.404C18.9259 13.3509 19.1868 13.3703 19.4269 13.46C20.0355 13.6857 20.6678 13.8422 21.3118 13.9266C21.6377 13.9723 21.9353 14.1355 22.148 14.385C22.3607 14.6345 22.4738 14.953 22.4656 15.28Z" stroke="white" stroke-linecap="round" stroke-linejoin="round"/>
</svg>
