<svg width="29" height="24" viewBox="0 0 29 24" fill="none" xmlns="http://www.w3.org/2000/svg">
<path d="M0.708008 4C0.708008 1.79086 2.49887 0 4.70801 0H28.708V24H4.70801C2.49887 24 0.708008 22.2091 0.708008 20V4Z" fill="#F04745"/>
<g clip-path="url(#clip0_3_99)">
<path d="M11.0073 12.54C9.93669 10.8087 9.26825 8.83809 9.0557 6.78665C9.03981 6.60229 9.0607 6.41649 9.11704 6.24107C9.17338 6.06564 9.26394 5.90444 9.38294 5.76773C9.50194 5.63102 9.64678 5.52179 9.80824 5.447C9.9697 5.37221 10.1442 5.33349 10.3208 5.33332H12.2279C12.5364 5.33013 12.8355 5.4447 13.0694 5.65567C13.3033 5.86664 13.4561 6.15961 13.4993 6.47998C13.5798 7.12003 13.7291 7.74847 13.9443 8.35332C14.0298 8.59193 14.0483 8.85126 13.9976 9.10057C13.9469 9.34988 13.8291 9.57872 13.6582 9.75998L12.8509 10.6066M14.4973 12.8733C15.1425 13.5505 15.8716 14.1335 16.6651 14.6066L17.4725 13.76C17.6453 13.5807 17.8635 13.4572 18.1012 13.404C18.339 13.3509 18.5863 13.3703 18.8138 13.46C19.3906 13.6857 19.9898 13.8422 20.6001 13.9266C20.9056 13.9719 21.185 14.1322 21.3862 14.3775C21.5873 14.6228 21.6966 14.9364 21.6936 15.26V17.26C21.6943 17.4456 21.658 17.6294 21.5871 17.7995C21.5161 17.9697 21.4121 18.1224 21.2817 18.2479C21.1512 18.3734 20.9972 18.469 20.8295 18.5285C20.6617 18.5879 20.484 18.61 20.3077 18.5933C18.3515 18.3704 16.4725 17.6694 14.8216 16.5466C14.0557 16.0367 13.3458 15.4397 12.7047 14.7666L14.4973 12.8733Z" stroke="white" stroke-linecap="round" stroke-linejoin="round"/>
<path d="M22.3293 4.66663L8.34375 19.3333" stroke="white" stroke-linecap="round" stroke-linejoin="round"/>
</g>
<defs>
<clipPath id="clip0_3_99">
<rect width="15.257" height="16" fill="white" transform="translate(7.70801 4)"/>
</clipPath>
</defs>
</svg>
