<svg width="243" height="59" viewBox="0 0 243 59" fill="none" xmlns="http://www.w3.org/2000/svg">
<path d="M10.6497 33H14.4153V31.8477H12.0833V27.3633H10.6497V33ZM16.9934 33.0898C18.3333 33.0898 19.1692 32.2812 19.1692 30.875V30.8672C19.1692 29.4805 18.3176 28.6562 16.9934 28.6562C15.6731 28.6562 14.8176 29.4883 14.8176 30.8672V30.875C14.8176 32.2773 15.6458 33.0898 16.9934 33.0898ZM16.9973 32.0391C16.5168 32.0391 16.2239 31.625 16.2239 30.875V30.8672C16.2239 30.1328 16.5247 29.707 16.9934 29.707C17.4622 29.707 17.7668 30.1328 17.7668 30.8672V30.875C17.7668 31.6211 17.47 32.0391 16.9973 32.0391ZM20.4661 33H21.9348L22.5989 30.1367H22.6262L23.302 33H24.7942L25.8918 28.7461H24.5247L23.9856 31.75H23.9583L23.302 28.7461H21.9778L21.3293 31.75H21.302L20.759 28.7461H19.3606L20.4661 33Z" fill="#6D2FA3"/>
<path d="M215.331 31H216.765V28.7305H219.011V31H220.441V25.3633H219.011V27.5781H216.765V25.3633H215.331V31ZM221.909 26.2891C222.312 26.2891 222.616 25.9766 222.616 25.6055C222.616 25.2344 222.312 24.9258 221.909 24.9258C221.511 24.9258 221.202 25.2344 221.202 25.6055C221.202 25.9766 221.511 26.2891 221.909 26.2891ZM221.218 31H222.601V26.7461H221.218V31ZM225.359 32.457C226.699 32.457 227.534 31.8086 227.534 30.8789V26.7461H226.152V27.4805H226.12C225.909 26.9688 225.452 26.6562 224.851 26.6562C223.777 26.6562 223.148 27.4375 223.148 28.8125V28.8164C223.148 30.1328 223.769 30.8906 224.831 30.8906C225.449 30.8906 225.917 30.6211 226.124 30.1875H226.152V30.8945C226.152 31.2773 225.886 31.5352 225.366 31.5352C224.929 31.5352 224.667 31.3555 224.601 31.1914L224.589 31.168H223.253L223.257 31.2031C223.351 31.9141 224.128 32.457 225.359 32.457ZM225.355 29.9297C224.866 29.9297 224.554 29.5234 224.554 28.8555V28.8516C224.554 28.1836 224.87 27.7852 225.355 27.7852C225.839 27.7852 226.159 28.1836 226.159 28.8555V28.8594C226.159 29.5273 225.843 29.9297 225.355 29.9297ZM228.23 31H229.616V28.5898C229.616 28.1211 229.89 27.7852 230.327 27.7852C230.784 27.7852 231.027 28.0898 231.027 28.5938V31H232.413V28.2969C232.413 27.2734 231.866 26.6562 230.937 26.6562C230.296 26.6562 229.855 26.957 229.644 27.5117H229.616V25.3633H228.23V31Z" fill="#6D2FA3"/>
<rect x="0.909424" y="37" width="241.147" height="7" rx="3.5" fill="#6D2FA3"/>
<g filter="url(#filter0_d_218_46)">
<path d="M149.1 21.0808C149.1 23.3576 148.124 26.0794 146.402 29.1737C144.961 31.762 143.066 34.4929 140.982 37.2907C138.713 34.3263 136.804 31.5753 135.407 29.0153C133.765 26.0057 132.9 23.3837 132.9 21.0808C132.9 16.5787 136.532 12.9399 141 12.9399C145.467 12.9399 149.1 16.5787 149.1 21.0808Z" fill="#CCF3F6" stroke="white" stroke-width="3"/>
<g clip-path="url(#clip0_218_46)">
<path d="M135.83 27.2753C135.867 27.2848 135.908 27.2795 135.941 27.2606C135.975 27.2418 136 27.2108 136.01 27.1744C136.315 26.079 137.551 25.7951 138.291 25.6252C138.476 25.5828 138.622 25.5491 138.717 25.5095C139.559 25.1569 139.834 24.5897 139.916 24.1758C139.921 24.1512 139.919 24.1258 139.91 24.1021C139.902 24.0784 139.887 24.0574 139.867 24.041C139.429 23.6759 139.059 23.1278 138.825 22.4973C138.819 22.4792 138.808 22.4626 138.795 22.4485C138.486 22.1247 138.309 21.7824 138.309 21.5096C138.309 21.3503 138.371 21.2434 138.512 21.1627C138.533 21.1506 138.55 21.1336 138.563 21.1133C138.575 21.093 138.582 21.0701 138.583 21.0464C138.649 19.5945 139.721 18.4515 141.035 18.4441L141.067 18.4461C142.388 18.4638 143.453 19.6313 143.491 21.1037C143.492 21.1239 143.497 21.1437 143.506 21.1618C143.515 21.1799 143.528 21.196 143.544 21.2089C143.637 21.2844 143.68 21.3802 143.68 21.5102C143.68 21.7385 143.554 22.0193 143.325 22.3003C143.314 22.3138 143.306 22.3291 143.3 22.3453C143.064 23.0682 142.639 23.7064 142.137 24.0969C142.116 24.1131 142.1 24.1345 142.091 24.1587C142.081 24.1829 142.079 24.2092 142.084 24.2345C142.166 24.6481 142.441 25.2151 143.283 25.5682C143.382 25.6098 143.537 25.6423 143.733 25.6831C144.464 25.8359 145.689 26.0921 145.989 27.1744C145.995 27.1925 146.003 27.2094 146.015 27.2242C146.027 27.2391 146.042 27.2515 146.058 27.2609C146.075 27.2702 146.094 27.2763 146.113 27.2787C146.132 27.2811 146.152 27.2799 146.171 27.275C146.189 27.2701 146.207 27.2617 146.222 27.2503C146.238 27.2389 146.251 27.2247 146.26 27.2085C146.27 27.1922 146.276 27.1743 146.279 27.1558C146.281 27.1372 146.28 27.1183 146.275 27.1003C145.928 25.8498 144.54 25.5599 143.795 25.4043C143.622 25.3681 143.473 25.3371 143.4 25.3063C142.851 25.076 142.512 24.7251 142.393 24.2616C142.903 23.8389 143.33 23.1868 143.574 22.4554C143.833 22.1304 143.975 21.7958 143.975 21.5099C143.975 21.3192 143.912 21.1602 143.785 21.0359C143.715 19.4386 142.533 18.1807 141.067 18.1605L141.023 18.1599C139.583 18.1673 138.397 19.3921 138.293 20.9618C138.108 21.0929 138.014 21.2768 138.014 21.5102C138.014 21.8474 138.212 22.2507 138.558 22.6207C138.797 23.2543 139.167 23.811 139.608 24.2006C139.489 24.6658 139.15 25.0178 138.6 25.2484C138.528 25.2783 138.387 25.3111 138.222 25.3487C137.472 25.5209 136.075 25.8416 135.725 27.1008C135.715 27.1374 135.72 27.1762 135.74 27.209C135.759 27.2417 135.792 27.2655 135.83 27.2753V27.2753Z" fill="#3B7980" stroke="#3B7980"/>
</g>
</g>
<path d="M129.093 23.4901C128.881 21.8008 129.032 20.0859 129.534 18.4592C130.037 16.8325 130.879 15.3313 132.007 14.0554C133.134 12.7794 134.519 11.7579 136.072 11.0587C137.624 10.3595 139.307 9.99862 141.01 10C142.712 10.0014 144.395 10.365 145.946 11.0667C147.497 11.7684 148.881 12.7922 150.006 14.07C151.131 15.3477 151.972 16.8503 152.471 18.4778C152.971 20.1052 153.119 21.8204 152.905 23.5094L148.745 22.982C148.884 21.8832 148.788 20.7673 148.463 19.7085C148.138 18.6497 147.591 17.6721 146.859 16.8408C146.127 16.0095 145.227 15.3435 144.218 14.887C143.209 14.4305 142.114 14.1939 141.006 14.193C139.899 14.1921 138.804 14.4269 137.794 14.8818C136.784 15.3367 135.882 16.0012 135.149 16.8314C134.416 17.6615 133.867 18.6381 133.541 19.6964C133.214 20.7547 133.116 21.8704 133.253 22.9694L129.093 23.4901Z" fill="#57AF32"/>
<defs>
<filter id="filter0_d_218_46" x="116.4" y="0.439941" width="49.2" height="58.3199" filterUnits="userSpaceOnUse" color-interpolation-filters="sRGB">
<feFlood flood-opacity="0" result="BackgroundImageFix"/>
<feColorMatrix in="SourceAlpha" type="matrix" values="0 0 0 0 0 0 0 0 0 0 0 0 0 0 0 0 0 0 127 0" result="hardAlpha"/>
<feOffset dy="4"/>
<feGaussianBlur stdDeviation="7.5"/>
<feComposite in2="hardAlpha" operator="out"/>
<feColorMatrix type="matrix" values="0 0 0 0 0 0 0 0 0 0 0 0 0 0 0 0 0 0 0.5 0"/>
<feBlend mode="normal" in2="BackgroundImageFix" result="effect1_dropShadow_218_46"/>
<feBlend mode="normal" in="SourceGraphic" in2="effect1_dropShadow_218_46" result="shape"/>
</filter>
<clipPath id="clip0_218_46">
<rect width="11.52" height="10.24" fill="white" transform="translate(135.24 17.6799)"/>
</clipPath>
</defs>
</svg>
