<svg width="24" height="24" viewBox="0 0 24 24" fill="none" xmlns="http://www.w3.org/2000/svg">
<path d="M14.5029 12.62H14.4729L14.8129 13.17L14.8729 13.29C15.2929 14.3 15.0029 15.45 14.2129 16.19C13.5029 16.85 12.5029 17.02 11.5829 16.9C10.7129 16.79 9.90287 16.24 9.45287 15.48C9.30287 15.25 9.19287 14.98 9.13287 14.72L9.00287 14.06C8.96287 13.1 9.34287 12.09 10.0629 11.49C9.73287 12.21 9.81287 13.11 10.3029 13.74L10.3629 13.82C10.4429 13.89 10.5529 13.92 10.6429 13.87C10.7329 13.84 10.8029 13.75 10.8029 13.65L10.7629 13.51C10.2329 12.12 10.6829 10.5 11.7929 9.58C12.1029 9.33 12.5029 9.1 12.8729 9C12.4629 9.82 12.6129 10.88 13.2529 11.52L14.1429 12.25L14.5029 12.62ZM13.1129 15.39C13.3729 15.15 13.5329 14.75 13.5029 14.39V14.2C13.3829 13.6 12.8529 13.41 12.5029 12.95L12.2629 12.5C12.1329 12.8 12.1229 13.08 12.1729 13.41C12.2329 13.75 12.3729 14.04 12.2929 14.39C12.2029 14.78 11.9029 15.17 11.3729 15.3C11.6729 15.59 12.1529 15.82 12.6429 15.66L13.1129 15.39Z" fill="black" fill-opacity="0.7"/>
<path d="M2 3H22" stroke="black" stroke-opacity="0.7"/>
<path d="M5.5 17.5V7.5C5.5 7.5 9.5 6.5 12 6.5C14.5 6.5 18.5 7.5 18.5 7.5V17.5" stroke="black" stroke-opacity="0.7"/>
<path d="M2 19.5H22" stroke="black" stroke-opacity="0.7"/>
</svg>
