<svg width="30" height="30" viewBox="0 0 30 30" fill="none" xmlns="http://www.w3.org/2000/svg">
<circle cx="15" cy="15" r="15" fill="#A8D0E9"/>
<path d="M8.13867 16.0703H10.7637V18.7539H11.7129V16.0703H14.3379V15.1211H11.7129V12.4375H10.7637V15.1211H8.13867V16.0703ZM18.8379 19.1406C20.5312 19.1406 21.7734 18.0977 21.7734 16.6855V16.6738C21.7734 15.4727 20.9355 14.7051 19.7051 14.5996V14.5762C20.7598 14.3535 21.498 13.6387 21.498 12.5957V12.584C21.498 11.3008 20.4375 10.4043 18.8262 10.4043C17.2441 10.4043 16.1543 11.3242 16.0195 12.7012L16.0137 12.7598H17.0273L17.0332 12.7012C17.1211 11.8457 17.8301 11.3184 18.8262 11.3184C19.8574 11.3184 20.4375 11.8281 20.4375 12.7129V12.7246C20.4375 13.5684 19.7344 14.1895 18.7266 14.1895H17.7129V15.0801H18.7734C19.957 15.0801 20.7012 15.6602 20.7012 16.6973V16.709C20.7012 17.6055 19.9453 18.2266 18.8379 18.2266C17.7129 18.2266 16.9453 17.6523 16.8633 16.8203L16.8574 16.7617H15.8438L15.8496 16.832C15.9609 18.168 17.0918 19.1406 18.8379 19.1406Z" fill="black" fill-opacity="0.7"/>
</svg>
