<svg width="30" height="30" viewBox="0 0 30 30" fill="none" xmlns="http://www.w3.org/2000/svg">
<circle cx="15" cy="15" r="15" fill="#F9ECC7"/>
<path d="M23.8847 10.08C23.8464 9.8367 23.735 9.61075 23.5654 9.43216C23.3957 9.25357 23.1758 9.13077 22.9347 9.08004L19.9997 8.43504C19.685 8.36639 19.3592 8.36613 19.0443 8.43428C18.7295 8.50243 18.4329 8.63739 18.1747 8.83004L9.49971 15.15L7.06971 15.05C6.87437 15.043 6.68179 15.0978 6.51933 15.2065C6.35686 15.3152 6.23278 15.4723 6.16469 15.6555C6.0966 15.8387 6.08798 16.0387 6.14004 16.2272C6.1921 16.4156 6.30221 16.5828 6.45471 16.705L8.95471 18.67C9.25471 19.035 9.45471 18.965 14.4197 16.26L14.8847 20.97C14.8925 21.0985 14.9365 21.2222 15.0117 21.3266C15.087 21.4311 15.1903 21.512 15.3097 21.56C15.3956 21.594 15.4873 21.611 15.5797 21.61C15.7657 21.6044 15.9433 21.5315 16.0797 21.405L17.2747 20.315C17.3937 20.2048 17.4743 20.0594 17.5047 19.9L18.5997 13.95C20.3847 12.95 22.0747 12.01 23.2797 11.325C23.4953 11.2038 23.6687 11.0196 23.7768 10.7971C23.885 10.5746 23.9226 10.3245 23.8847 10.08ZM22.7847 10.455C21.5347 11.165 19.7847 12.16 17.9047 13.19L17.6997 13.305L16.5347 19.64L15.7997 20.31L15.2497 14.66L14.5847 15C10.9997 17 9.80471 17.58 9.39471 17.76L7.24471 16.055L9.78471 16.165L18.7847 9.63504C18.9262 9.52927 19.0884 9.45456 19.2607 9.41579C19.433 9.37702 19.6116 9.37506 19.7847 9.41004L22.7097 10.04C22.7548 10.0482 22.7961 10.0706 22.8276 10.1038C22.859 10.1371 22.8791 10.1796 22.8847 10.225C22.895 10.269 22.8908 10.3152 22.8728 10.3566C22.8548 10.398 22.8239 10.4326 22.7847 10.455Z" fill="#BA9244"/>
<path d="M9.50004 12.27L11.28 12.77L12.1 12.175L10.1 11.595L11 11.045L13.735 10.965L14.885 10.13L11 10.25C10.8776 10.2434 10.7558 10.2729 10.65 10.335L9.33505 11.1C9.22633 11.1644 9.13911 11.2596 9.08438 11.3734C9.02965 11.4873 9.00987 11.6149 9.02751 11.74C9.04516 11.8651 9.09945 11.9822 9.18354 12.0765C9.26763 12.1709 9.37776 12.2382 9.50004 12.27Z" fill="#BA9244"/>
</svg>
