<svg width="30" height="30" viewBox="0 0 30 30" fill="none" xmlns="http://www.w3.org/2000/svg">
<circle cx="15" cy="15" r="15" fill="#A8D0E9"/>
<path d="M11.4002 14.4H10.8002V15.6H11.4002V14.4ZM18.6002 15.6H19.2002V14.4H18.6002V15.6ZM11.4002 10.8H10.8002V12H11.4002V10.8ZM13.8002 12H14.4002V10.8H13.8002V12ZM18.6002 6.6L19.025 6.1752L18.8486 6H18.6002V6.6ZM22.2002 10.2H22.8002V9.9516L22.625 9.7752L22.2002 10.2ZM15.6002 19.2L15.1754 19.6248L15.6002 19.2ZM15.0002 19.8L15.269 20.3364L15.317 20.3124L15.3602 20.28L15.0002 19.8ZM11.4002 15.6H18.6002V14.4H11.4002V15.6ZM11.4002 12H13.8002V10.8H11.4002V12ZM21.0002 22.8H9.0002V24H21.0002V22.8ZM8.4002 22.2V7.8H7.2002V22.2H8.4002ZM9.0002 7.2H18.6002V6H9.0002V7.2ZM21.6002 10.2V22.2H22.8002V10.2H21.6002ZM18.1754 7.0248L21.7754 10.6248L22.625 9.7752L19.025 6.1752L18.1754 7.0248ZM9.0002 22.8C8.84107 22.8 8.68845 22.7368 8.57593 22.6243C8.46341 22.5117 8.4002 22.3591 8.4002 22.2H7.2002C7.2002 22.6774 7.38984 23.1352 7.7274 23.4728C8.06497 23.8104 8.52281 24 9.0002 24V22.8ZM21.0002 24C21.4776 24 21.9354 23.8104 22.273 23.4728C22.6106 23.1352 22.8002 22.6774 22.8002 22.2H21.6002C21.6002 22.3591 21.537 22.5117 21.4245 22.6243C21.3119 22.7368 21.1593 22.8 21.0002 22.8V24ZM8.4002 7.8C8.4002 7.64087 8.46341 7.48826 8.57593 7.37574C8.68845 7.26321 8.84107 7.2 9.0002 7.2V6C8.52281 6 8.06497 6.18964 7.7274 6.52721C7.38984 6.86477 7.2002 7.32261 7.2002 7.8H8.4002ZM12.569 19.9896C12.7022 19.59 13.0814 19.2192 13.565 19.0896C14.0174 18.9684 14.5994 19.0476 15.1754 19.6248L16.025 18.7752C15.161 17.9112 14.1422 17.6916 13.2542 17.9304C12.3986 18.1608 11.6978 18.81 11.4302 19.6104L12.5702 19.9896H12.569ZM15.1754 19.6248C15.2092 19.6576 15.2408 19.6924 15.2702 19.7292L16.2182 18.9924C16.1583 18.9165 16.0938 18.8443 16.025 18.7764L15.1754 19.6248ZM15.2702 19.7292C15.3638 19.8492 15.3422 19.8876 15.3458 19.8612C15.3482 19.8444 15.353 19.872 15.281 19.9368C15.1772 20.0235 15.0596 20.0921 14.933 20.1396C14.7809 20.2008 14.6222 20.2443 14.4602 20.2692C14.3613 20.288 14.2602 20.2921 14.1602 20.2812C14.1398 20.2764 14.1818 20.2812 14.2442 20.3256C14.3207 20.3847 14.377 20.4661 14.4051 20.5585C14.4333 20.651 14.432 20.7499 14.4014 20.8416C14.3946 20.8615 14.3853 20.8804 14.3738 20.898C14.3714 20.9004 14.3918 20.874 14.4602 20.8176C14.597 20.7072 14.849 20.5464 15.269 20.3376L14.7314 19.2636C14.279 19.4892 13.9394 19.6956 13.7066 19.884C13.5885 19.9761 13.4836 20.0839 13.3946 20.2044C13.2814 20.3559 13.2223 20.5409 13.2266 20.73C13.2386 20.9892 13.379 21.18 13.5326 21.2916C13.6682 21.3924 13.8182 21.4356 13.9286 21.4584C14.153 21.5028 14.4086 21.4908 14.6402 21.456C15.0962 21.3864 15.6866 21.1896 16.0886 20.8248C16.2974 20.634 16.4954 20.3604 16.5374 20.0016C16.5806 19.6344 16.4486 19.29 16.217 18.9936L15.269 19.7292H15.2702ZM15.3602 20.28C15.5522 20.1332 15.7608 20.0095 15.9818 19.9116L15.5054 18.81C15.2174 18.9348 14.9294 19.104 14.6402 19.32L15.3602 20.28ZM15.9818 19.9116C16.7618 19.5744 17.459 19.752 18.173 20.0916C18.353 20.178 18.5282 20.2716 18.7058 20.3676C18.8786 20.4612 19.061 20.5608 19.2338 20.6496C19.565 20.8164 19.9754 21 20.4002 21V19.8C20.2874 19.8 20.1026 19.7436 19.7762 19.5792C19.6226 19.5 19.4618 19.4112 19.277 19.3116C19.097 19.2144 18.8978 19.1076 18.689 19.0092C17.8514 18.6096 16.7558 18.27 15.5054 18.81L15.9818 19.9116Z" fill="#3E769E"/>
</svg>
